<svg xmlns="http://www.w3.org/2000/svg" xmlns:xlink="http://www.w3.org/1999/xlink" viewBox="27 9.5 364 156.0637969970703" width="466.4758989643615" height="200"><path d="M 99.000,21.500 C 98.840,18.110 98.000,19.000 97.000,16.500" stroke-width="5.445" stroke="black" fill="none" stroke-linecap="round"></path><path d="M 97.000,16.500 C 94.077,14.720 94.840,14.610 91.000,14.500" stroke-width="5.121" stroke="black" fill="none" stroke-linecap="round"></path><path d="M 91.000,14.500 C 86.897,14.601 87.077,14.220 83.000,15.500" stroke-width="4.685" stroke="black" fill="none" stroke-linecap="round"></path><path d="M 83.000,15.500 C 80.018,15.819 80.397,16.101 78.000,17.500" stroke-width="4.947" stroke="black" fill="none" stroke-linecap="round"></path><path d="M 78.000,17.500 C 74.229,21.302 74.018,20.819 71.000,25.500" stroke-width="4.703" stroke="black" fill="none" stroke-linecap="round"></path><path d="M 71.000,25.500 C 69.300,27.901 69.229,27.802 68.000,30.500" stroke-width="4.757" stroke="black" fill="none" stroke-linecap="round"></path><path d="M 68.000,30.500 C 66.790,32.932 66.800,32.901 66.000,35.500" stroke-width="4.797" stroke="black" fill="none" stroke-linecap="round"></path><path d="M 66.000,35.500 C 64.541,39.443 64.790,39.432 64.000,43.500" stroke-width="4.871" stroke="black" fill="none" stroke-linecap="round"></path><path d="M 64.000,43.500 C 63.711,47.029 63.541,46.943 64.000,50.500" stroke-width="4.707" stroke="black" fill="none" stroke-linecap="round"></path><path d="M 64.000,50.500 C 64.067,53.167 64.211,53.029 65.000,55.500" stroke-width="4.808" stroke="black" fill="none" stroke-linecap="round"></path><path d="M 65.000,55.500 C 66.332,58.117 66.067,58.167 68.000,60.500" stroke-width="4.773" stroke="black" fill="none" stroke-linecap="round"></path><path d="M 68.000,60.500 C 69.495,63.830 69.832,63.117 72.000,65.500" stroke-width="5.020" stroke="black" fill="none" stroke-linecap="round"></path><path d="M 72.000,65.500 C 74.516,66.691 73.995,66.830 77.000,66.500" stroke-width="5.072" stroke="black" fill="none" stroke-linecap="round"></path><path d="M 77.000,66.500 C 81.405,66.298 81.016,66.191 85.000,64.500" stroke-width="4.899" stroke="black" fill="none" stroke-linecap="round"></path><path d="M 85.000,64.500 C 88.100,62.110 88.405,62.798 91.000,59.500" stroke-width="4.884" stroke="black" fill="none" stroke-linecap="round"></path><path d="M 91.000,59.500 C 93.399,57.787 93.100,57.610 95.000,55.500" stroke-width="4.811" stroke="black" fill="none" stroke-linecap="round"></path><path d="M 95.000,55.500 C 96.801,52.617 96.899,52.787 98.000,49.500" stroke-width="4.914" stroke="black" fill="none" stroke-linecap="round"></path><path d="M 98.000,49.500 C 99.183,46.041 99.301,46.117 100.000,42.500" stroke-width="4.677" stroke="black" fill="none" stroke-linecap="round"></path><path d="M 100.000,42.500 C 100.798,39.525 100.683,39.541 101.000,36.500" stroke-width="4.728" stroke="black" fill="none" stroke-linecap="round"></path><path d="M 101.000,36.500 C 101.000,32.000 101.298,32.025 101.000,27.500" stroke-width="4.875" stroke="black" fill="none" stroke-linecap="round"></path><path d="M 101.000,27.500 C 101.000,20.300 101.000,24.500 101.000,21.500" stroke-width="5.059" stroke="black" fill="none" stroke-linecap="round"></path><path d="M 101.000,21.500 C 100.106,28.645 101.000,24.300 101.000,35.500" stroke-width="5.189" stroke="black" fill="none" stroke-linecap="round"></path><path d="M 101.000,35.500 C 102.781,39.930 101.606,40.145 104.000,44.500" stroke-width="4.563" stroke="black" fill="none" stroke-linecap="round"></path><path d="M 104.000,44.500 C 104.219,47.570 104.781,47.430 105.000,50.500" stroke-width="4.211" stroke="black" fill="none" stroke-linecap="round"></path><path d="M 105.000,50.500 C 106.082,55.184 106.219,55.070 108.000,59.500" stroke-width="4.320" stroke="black" fill="none" stroke-linecap="round"></path><path d="M 108.000,59.500 C 110.276,64.142 110.082,64.184 113.000,68.500" stroke-width="3.650" stroke="black" fill="none" stroke-linecap="round"></path><path d="M 113.000,68.500 C 116.098,71.696 115.276,72.142 118.000,75.500" stroke-width="3.709" stroke="black" fill="none" stroke-linecap="round"></path><path d="M 118.000,75.500 C 118.902,80.304 120.098,79.696 121.000,84.500" stroke-width="3.583" stroke="black" fill="none" stroke-linecap="round"></path><path d="M 121.000,84.500 C 123.552,87.964 122.902,88.304 126.000,91.500" stroke-width="3.635" stroke="black" fill="none" stroke-linecap="round"></path><path d="M 126.000,91.500 C 128.489,94.261 128.052,94.464 130.000,97.500" stroke-width="3.801" stroke="black" fill="none" stroke-linecap="round"></path><path d="M 130.000,97.500 C 131.422,102.028 131.989,101.761 133.000,106.500" stroke-width="3.811" stroke="black" fill="none" stroke-linecap="round"></path><path d="M 133.000,106.500 C 134.650,110.450 134.422,110.528 136.000,114.500" stroke-width="4.266" stroke="black" fill="none" stroke-linecap="round"></path><path d="M 136.000,114.500 C 136.930,118.022 137.150,117.950 138.000,121.500" stroke-width="3.978" stroke="black" fill="none" stroke-linecap="round"></path><path d="M 138.000,121.500 C 139.341,124.423 138.930,124.522 140.000,127.500" stroke-width="4.062" stroke="black" fill="none" stroke-linecap="round"></path><path d="M 140.000,127.500 C 140.101,131.603 140.841,131.423 141.000,135.500" stroke-width="3.771" stroke="black" fill="none" stroke-linecap="round"></path><path d="M 141.000,135.500 C 142.598,137.885 141.601,138.103 143.000,140.500" stroke-width="4.067" stroke="black" fill="none" stroke-linecap="round"></path><path d="M 143.000,140.500 C 143.305,144.530 143.598,144.385 143.000,148.500" stroke-width="4.361" stroke="black" fill="none" stroke-linecap="round"></path><path d="M 143.000,148.500 C 142.730,151.068 142.805,151.030 142.000,153.500" stroke-width="4.337" stroke="black" fill="none" stroke-linecap="round"></path><path d="M 142.000,153.500 C 141.913,157.012 141.230,156.068 140.000,158.500" stroke-width="4.831" stroke="black" fill="none" stroke-linecap="round"></path><path d="M 140.000,158.500 C 136.571,160.290 137.413,160.512 133.000,160.500" stroke-width="4.894" stroke="black" fill="none" stroke-linecap="round"></path><path d="M 133.000,160.500 C 127.864,160.581 128.071,160.790 123.000,159.500" stroke-width="4.448" stroke="black" fill="none" stroke-linecap="round"></path><path d="M 123.000,159.500 C 119.051,157.850 118.864,158.581 115.000,156.500" stroke-width="3.871" stroke="black" fill="none" stroke-linecap="round"></path><path d="M 115.000,156.500 C 110.059,154.765 110.051,154.850 105.000,153.500" stroke-width="3.532" stroke="black" fill="none" stroke-linecap="round"></path><path d="M 105.000,153.500 C 99.772,153.091 100.059,152.265 95.000,151.500" stroke-width="3.464" stroke="black" fill="none" stroke-linecap="round"></path><path d="M 95.000,151.500 C 92.638,149.699 92.272,150.591 90.000,148.500" stroke-width="3.941" stroke="black" fill="none" stroke-linecap="round"></path><path d="M 90.000,148.500 C 86.978,147.563 87.138,147.199 84.000,146.500" stroke-width="4.051" stroke="black" fill="none" stroke-linecap="round"></path><path d="M 84.000,146.500 C 79.921,145.181 79.978,145.063 76.000,143.500" stroke-width="4.352" stroke="black" fill="none" stroke-linecap="round"></path><path d="M 76.000,143.500 C 73.051,141.887 72.921,142.181 70.000,140.500" stroke-width="4.072" stroke="black" fill="none" stroke-linecap="round"></path><path d="M 70.000,140.500 C 67.284,139.870 67.551,139.387 65.000,138.500" stroke-width="4.210" stroke="black" fill="none" stroke-linecap="round"></path><path d="M 65.000,138.500 C 62.252,136.752 62.284,136.870 60.000,134.500" stroke-width="4.549" stroke="black" fill="none" stroke-linecap="round"></path><path d="M 60.000,134.500 C 57.379,131.593 57.252,131.752 55.000,128.500" stroke-width="4.549" stroke="black" fill="none" stroke-linecap="round"></path><path d="M 55.000,128.500 C 52.153,125.190 52.379,125.093 50.000,121.500" stroke-width="4.467" stroke="black" fill="none" stroke-linecap="round"></path><path d="M 50.000,121.500 C 48.235,119.083 48.653,119.190 48.000,116.500" stroke-width="4.732" stroke="black" fill="none" stroke-linecap="round"></path><path d="M 48.000,116.500 C 47.782,113.179 47.735,113.583 49.000,110.500" stroke-width="4.919" stroke="black" fill="none" stroke-linecap="round"></path><path d="M 49.000,110.500 C 50.645,107.594 50.282,107.679 53.000,105.500" stroke-width="4.788" stroke="black" fill="none" stroke-linecap="round"></path><path d="M 53.000,105.500 C 55.333,103.567 55.145,103.594 58.000,102.500" stroke-width="4.797" stroke="black" fill="none" stroke-linecap="round"></path><path d="M 58.000,102.500 C 60.476,101.837 60.333,101.567 63.000,101.500" stroke-width="4.412" stroke="black" fill="none" stroke-linecap="round"></path><path d="M 63.000,101.500 C 67.998,100.976 67.976,100.837 73.000,100.500" stroke-width="3.759" stroke="black" fill="none" stroke-linecap="round"></path><path d="M 73.000,100.500 C 78.505,100.050 78.498,99.976 84.000,99.500" stroke-width="3.446" stroke="black" fill="none" stroke-linecap="round"></path><path d="M 84.000,99.500 C 93.478,98.214 93.505,98.550 103.000,97.500" stroke-width="2.846" stroke="black" fill="none" stroke-linecap="round"></path><path d="M 103.000,97.500 C 113.520,97.267 113.478,96.714 124.000,96.500" stroke-width="2.606" stroke="black" fill="none" stroke-linecap="round"></path><path d="M 124.000,96.500 C 133.983,95.271 134.020,95.767 144.000,94.500" stroke-width="2.526" stroke="black" fill="none" stroke-linecap="round"></path><path d="M 144.000,94.500 C 153.493,93.750 153.483,93.771 163.000,93.500" stroke-width="2.556" stroke="black" fill="none" stroke-linecap="round"></path><path d="M 163.000,93.500 C 172.500,93.500 172.493,93.250 182.000,93.500" stroke-width="2.567" stroke="black" fill="none" stroke-linecap="round"></path><path d="M 182.000,93.500 C 191.000,93.500 191.000,93.500 200.000,93.500" stroke-width="2.680" stroke="black" fill="none" stroke-linecap="round"></path><path d="M 200.000,93.500 C 206.500,93.500 206.500,93.500 213.000,93.500" stroke-width="3.065" stroke="black" fill="none" stroke-linecap="round"></path><path d="M 213.000,93.500 C 219.506,93.284 219.500,93.500 226.000,93.500" stroke-width="3.092" stroke="black" fill="none" stroke-linecap="round"></path><path d="M 226.000,93.500 C 234.492,94.287 234.506,93.784 243.000,94.500" stroke-width="2.889" stroke="black" fill="none" stroke-linecap="round"></path><path d="M 243.000,94.500 C 254.500,94.500 254.492,94.787 266.000,94.500" stroke-width="2.582" stroke="black" fill="none" stroke-linecap="round"></path><path d="M 266.000,94.500 C 278.000,94.500 278.000,94.500 290.000,94.500" stroke-width="2.340" stroke="black" fill="none" stroke-linecap="round"></path><path d="M 290.000,94.500 C 302.000,94.500 302.000,94.500 314.000,94.500" stroke-width="2.335" stroke="black" fill="none" stroke-linecap="round"></path><path d="M 314.000,94.500 C 327.500,94.500 327.500,94.500 341.000,94.500" stroke-width="2.219" stroke="black" fill="none" stroke-linecap="round"></path><path d="M 341.000,94.500 C 352.500,94.500 352.500,94.500 364.000,94.500" stroke-width="2.280" stroke="black" fill="none" stroke-linecap="round"></path><path d="M 364.000,94.500 C 370.500,94.500 370.500,94.500 377.000,94.500" stroke-width="2.848" stroke="black" fill="none" stroke-linecap="round"></path><path d="M 377.000,94.500 C 381.500,94.500 381.500,94.500 386.000,94.500" stroke-width="3.382" stroke="black" fill="none" stroke-linecap="round"></path><path d="M 160.000,44.500 C 157.125,42.636 157.000,43.000 154.000,41.500" stroke-width="5.446" stroke="black" fill="none" stroke-linecap="round"></path><path d="M 154.000,41.500 C 151.527,40.730 151.625,40.636 149.000,40.500" stroke-width="5.046" stroke="black" fill="none" stroke-linecap="round"></path><path d="M 149.000,40.500 C 145.899,39.973 146.027,40.230 143.000,40.500" stroke-width="5.022" stroke="black" fill="none" stroke-linecap="round"></path><path d="M 143.000,40.500 C 140.401,41.300 140.399,40.973 138.000,42.500" stroke-width="4.875" stroke="black" fill="none" stroke-linecap="round"></path><path d="M 138.000,42.500 C 135.351,43.790 135.401,43.800 133.000,45.500" stroke-width="4.793" stroke="black" fill="none" stroke-linecap="round"></path><path d="M 133.000,45.500 C 129.900,47.890 129.851,47.790 127.000,50.500" stroke-width="4.834" stroke="black" fill="none" stroke-linecap="round"></path><path d="M 127.000,50.500 C 124.876,52.389 124.900,52.390 123.000,54.500" stroke-width="4.796" stroke="black" fill="none" stroke-linecap="round"></path><path d="M 123.000,54.500 C 120.509,56.733 120.876,56.889 119.000,59.500" stroke-width="4.912" stroke="black" fill="none" stroke-linecap="round"></path><path d="M 119.000,59.500 C 118.000,62.500 117.509,62.233 117.000,65.500" stroke-width="4.961" stroke="black" fill="none" stroke-linecap="round"></path><path d="M 117.000,65.500 C 115.255,68.442 116.000,68.500 115.000,71.500" stroke-width="4.999" stroke="black" fill="none" stroke-linecap="round"></path><path d="M 115.000,71.500 C 115.204,74.583 114.755,74.442 116.000,77.500" stroke-width="5.017" stroke="black" fill="none" stroke-linecap="round"></path><path d="M 116.000,77.500 C 116.572,80.255 116.704,80.083 118.000,82.500" stroke-width="5.053" stroke="black" fill="none" stroke-linecap="round"></path><path d="M 118.000,82.500 C 120.527,85.478 120.072,85.755 123.000,88.500" stroke-width="4.900" stroke="black" fill="none" stroke-linecap="round"></path><path d="M 123.000,88.500 C 125.000,91.000 125.027,90.978 127.000,93.500" stroke-width="4.983" stroke="black" fill="none" stroke-linecap="round"></path><path d="M 127.000,93.500 C 128.556,96.599 129.000,96.000 131.000,98.500" stroke-width="5.092" stroke="black" fill="none" stroke-linecap="round"></path><path d="M 131.000,98.500 C 133.399,100.027 133.056,100.099 136.000,100.500" stroke-width="5.218" stroke="black" fill="none" stroke-linecap="round"></path><path d="M 136.000,100.500 C 139.000,100.500 138.899,101.027 142.000,100.500" stroke-width="4.872" stroke="black" fill="none" stroke-linecap="round"></path><path d="M 142.000,100.500 C 145.647,101.218 145.500,100.500 149.000,100.500" stroke-width="4.757" stroke="black" fill="none" stroke-linecap="round"></path><path d="M 149.000,100.500 C 152.791,99.475 152.647,99.718 156.000,97.500" stroke-width="4.959" stroke="black" fill="none" stroke-linecap="round"></path><path d="M 156.000,97.500 C 159.252,95.248 159.291,95.475 162.000,92.500" stroke-width="4.893" stroke="black" fill="none" stroke-linecap="round"></path><path d="M 162.000,92.500 C 164.370,90.216 164.252,90.248 166.000,87.500" stroke-width="4.764" stroke="black" fill="none" stroke-linecap="round"></path><path d="M 166.000,87.500 C 167.150,85.051 167.370,85.216 168.000,82.500" stroke-width="4.917" stroke="black" fill="none" stroke-linecap="round"></path><path d="M 168.000,82.500 C 169.490,79.069 169.150,79.051 170.000,75.500" stroke-width="4.966" stroke="black" fill="none" stroke-linecap="round"></path><path d="M 170.000,75.500 C 170.000,72.000 170.490,72.069 170.000,68.500" stroke-width="4.944" stroke="black" fill="none" stroke-linecap="round"></path><path d="M 170.000,68.500 C 170.270,65.473 170.000,65.500 170.000,62.500" stroke-width="4.999" stroke="black" fill="none" stroke-linecap="round"></path><path d="M 170.000,62.500 C 169.730,59.932 169.770,59.973 169.000,57.500" stroke-width="5.059" stroke="black" fill="none" stroke-linecap="round"></path><path d="M 169.000,57.500 C 168.200,54.901 168.230,54.932 167.000,52.500" stroke-width="5.065" stroke="black" fill="none" stroke-linecap="round"></path><path d="M 167.000,52.500 C 166.000,49.500 165.700,49.901 164.000,47.500" stroke-width="5.128" stroke="black" fill="none" stroke-linecap="round"></path><path d="M 164.000,47.500 C 161.667,45.567 162.000,45.500 159.000,44.500" stroke-width="5.064" stroke="black" fill="none" stroke-linecap="round"></path><path d="M 159.000,44.500 C 156.432,43.257 156.667,43.567 154.000,43.500" stroke-width="5.316" stroke="black" fill="none" stroke-linecap="round"></path><path d="M 154.000,43.500 C 151.284,44.130 151.432,43.757 149.000,45.500" stroke-width="4.955" stroke="black" fill="none" stroke-linecap="round"></path><path d="M 149.000,45.500 C 146.094,47.145 146.284,47.130 144.000,49.500" stroke-width="4.977" stroke="black" fill="none" stroke-linecap="round"></path><path d="M 144.000,49.500 C 141.533,51.833 142.094,51.645 141.000,54.500" stroke-width="5.096" stroke="black" fill="none" stroke-linecap="round"></path><path d="M 141.000,54.500 C 140.489,57.773 140.533,56.833 142.000,59.500" stroke-width="5.300" stroke="black" fill="none" stroke-linecap="round"></path><path d="M 142.000,59.500 C 144.836,61.526 143.989,61.773 148.000,62.500" stroke-width="4.864" stroke="black" fill="none" stroke-linecap="round"></path><path d="M 148.000,62.500 C 151.484,63.230 151.336,63.526 155.000,63.500" stroke-width="4.933" stroke="black" fill="none" stroke-linecap="round"></path><path d="M 155.000,63.500 C 158.079,63.987 157.984,63.730 161.000,63.500" stroke-width="4.995" stroke="black" fill="none" stroke-linecap="round"></path><path d="M 161.000,63.500 C 164.403,63.152 164.079,62.987 167.000,61.500" stroke-width="4.978" stroke="black" fill="none" stroke-linecap="round"></path><path d="M 167.000,61.500 C 169.500,59.000 169.903,59.652 172.000,56.500" stroke-width="4.943" stroke="black" fill="none" stroke-linecap="round"></path><path d="M 172.000,56.500 C 174.000,54.500 174.000,54.500 176.000,52.500" stroke-width="4.843" stroke="black" fill="none" stroke-linecap="round"></path><path d="M 176.000,52.500 C 177.802,50.258 178.000,50.500 180.000,48.500" stroke-width="4.981" stroke="black" fill="none" stroke-linecap="round"></path><path d="M 180.000,48.500 C 182.718,45.257 182.802,46.258 186.000,44.500" stroke-width="4.996" stroke="black" fill="none" stroke-linecap="round"></path><path d="M 186.000,44.500 C 190.434,43.704 189.218,43.757 193.000,45.500" stroke-width="5.153" stroke="black" fill="none" stroke-linecap="round"></path><path d="M 193.000,45.500 C 195.513,48.336 195.434,47.204 196.000,51.500" stroke-width="5.125" stroke="black" fill="none" stroke-linecap="round"></path><path d="M 196.000,51.500 C 195.581,55.014 196.513,54.836 195.000,58.500" stroke-width="4.986" stroke="black" fill="none" stroke-linecap="round"></path><path d="M 195.000,58.500 C 194.500,61.000 194.581,61.014 194.000,63.500" stroke-width="4.919" stroke="black" fill="none" stroke-linecap="round"></path><path d="M 194.000,63.500 C 193.730,66.068 193.500,66.000 193.000,68.500" stroke-width="5.047" stroke="black" fill="none" stroke-linecap="round"></path><path d="M 193.000,68.500 C 191.435,70.891 192.230,71.068 191.000,73.500" stroke-width="4.994" stroke="black" fill="none" stroke-linecap="round"></path><path d="M 191.000,73.500 C 191.268,77.022 190.435,76.891 191.000,80.500" stroke-width="5.012" stroke="black" fill="none" stroke-linecap="round"></path><path d="M 191.000,80.500 C 190.544,83.508 190.768,83.522 190.000,86.500" stroke-width="5.112" stroke="black" fill="none" stroke-linecap="round"></path><path d="M 190.000,86.500 C 189.000,91.728 189.544,89.008 189.000,91.500" stroke-width="5.188" stroke="black" fill="none" stroke-linecap="round"></path><path d="M 189.000,91.500 C 189.748,88.521 189.000,91.228 190.000,85.500" stroke-width="5.400" stroke="black" fill="none" stroke-linecap="round"></path><path d="M 190.000,85.500 C 189.473,82.399 190.248,82.521 190.000,79.500" stroke-width="4.466" stroke="black" fill="none" stroke-linecap="round"></path><path d="M 190.000,79.500 C 190.887,76.949 190.473,76.899 192.000,74.500" stroke-width="4.328" stroke="black" fill="none" stroke-linecap="round"></path><path d="M 192.000,74.500 C 193.713,71.588 193.387,71.449 195.000,68.500" stroke-width="4.066" stroke="black" fill="none" stroke-linecap="round"></path><path d="M 195.000,68.500 C 196.070,65.522 196.213,65.588 197.000,62.500" stroke-width="4.090" stroke="black" fill="none" stroke-linecap="round"></path><path d="M 197.000,62.500 C 197.850,58.949 198.070,59.022 199.000,55.500" stroke-width="4.485" stroke="black" fill="none" stroke-linecap="round"></path><path d="M 199.000,55.500 C 199.122,51.909 199.850,52.949 201.000,50.500" stroke-width="4.981" stroke="black" fill="none" stroke-linecap="round"></path><path d="M 201.000,50.500 C 204.058,49.255 203.122,48.909 207.000,49.500" stroke-width="5.267" stroke="black" fill="none" stroke-linecap="round"></path><path d="M 207.000,49.500 C 210.659,49.679 210.058,49.755 213.000,51.500" stroke-width="5.064" stroke="black" fill="none" stroke-linecap="round"></path><path d="M 213.000,51.500 C 215.021,53.808 215.159,53.179 216.000,56.500" stroke-width="5.141" stroke="black" fill="none" stroke-linecap="round"></path><path d="M 216.000,56.500 C 216.768,59.478 217.021,59.308 217.000,62.500" stroke-width="4.861" stroke="black" fill="none" stroke-linecap="round"></path><path d="M 217.000,62.500 C 217.268,66.022 217.268,65.978 217.000,69.500" stroke-width="4.704" stroke="black" fill="none" stroke-linecap="round"></path><path d="M 217.000,69.500 C 216.951,72.647 216.768,72.522 216.000,75.500" stroke-width="4.736" stroke="black" fill="none" stroke-linecap="round"></path><path d="M 216.000,75.500 C 214.287,78.412 214.951,78.647 213.000,81.500" stroke-width="4.927" stroke="black" fill="none" stroke-linecap="round"></path><path d="M 213.000,81.500 C 211.830,84.455 211.787,84.412 211.000,87.500" stroke-width="5.069" stroke="black" fill="none" stroke-linecap="round"></path><path d="M 211.000,87.500 C 210.500,90.000 210.330,89.955 210.000,92.500" stroke-width="5.179" stroke="black" fill="none" stroke-linecap="round"></path><path d="M 210.000,92.500 C 208.650,98.199 209.500,95.000 209.000,97.500" stroke-width="5.216" stroke="black" fill="none" stroke-linecap="round"></path><path d="M 209.000,97.500 C 210.852,93.090 209.650,96.199 212.000,88.500" stroke-width="5.307" stroke="black" fill="none" stroke-linecap="round"></path><path d="M 212.000,88.500 C 213.081,83.013 213.352,83.090 214.000,77.500" stroke-width="4.507" stroke="black" fill="none" stroke-linecap="round"></path><path d="M 214.000,77.500 C 214.208,73.931 214.581,74.013 215.000,70.500" stroke-width="4.119" stroke="black" fill="none" stroke-linecap="round"></path><path d="M 215.000,70.500 C 216.170,67.545 215.708,67.431 217.000,64.500" stroke-width="4.149" stroke="black" fill="none" stroke-linecap="round"></path><path d="M 217.000,64.500 C 217.330,61.955 217.670,62.045 218.000,59.500" stroke-width="4.617" stroke="black" fill="none" stroke-linecap="round"></path><path d="M 218.000,59.500 C 218.059,55.684 218.830,56.455 220.000,53.500" stroke-width="5.031" stroke="black" fill="none" stroke-linecap="round"></path><path d="M 220.000,53.500 C 222.853,51.549 222.059,51.184 226.000,50.500" stroke-width="5.217" stroke="black" fill="none" stroke-linecap="round"></path><path d="M 226.000,50.500 C 228.979,49.752 228.853,49.549 232.000,49.500" stroke-width="5.175" stroke="black" fill="none" stroke-linecap="round"></path><path d="M 232.000,49.500 C 235.013,49.287 234.979,49.252 238.000,49.500" stroke-width="5.126" stroke="black" fill="none" stroke-linecap="round"></path><path d="M 238.000,49.500 C 242.228,49.339 242.013,49.787 246.000,50.500" stroke-width="5.040" stroke="black" fill="none" stroke-linecap="round"></path><path d="M 246.000,50.500 C 248.855,51.594 248.728,51.339 251.000,53.500" stroke-width="4.855" stroke="black" fill="none" stroke-linecap="round"></path><path d="M 251.000,53.500 C 253.608,55.717 253.355,55.594 255.000,58.500" stroke-width="4.753" stroke="black" fill="none" stroke-linecap="round"></path><path d="M 255.000,58.500 C 255.770,60.973 256.108,60.717 256.000,63.500" stroke-width="4.862" stroke="black" fill="none" stroke-linecap="round"></path><path d="M 256.000,63.500 C 256.000,66.500 256.270,66.473 256.000,69.500" stroke-width="4.893" stroke="black" fill="none" stroke-linecap="round"></path><path d="M 256.000,69.500 C 256.000,73.500 256.000,73.500 256.000,77.500" stroke-width="4.853" stroke="black" fill="none" stroke-linecap="round"></path><path d="M 256.000,77.500 C 256.268,81.022 256.000,81.000 256.000,84.500" stroke-width="4.909" stroke="black" fill="none" stroke-linecap="round"></path><path d="M 256.000,84.500 C 254.735,87.583 255.768,87.522 255.000,90.500" stroke-width="5.080" stroke="black" fill="none" stroke-linecap="round"></path><path d="M 255.000,90.500 C 255.025,94.117 255.235,93.083 257.000,95.500" stroke-width="5.190" stroke="black" fill="none" stroke-linecap="round"></path><path d="M 257.000,95.500 C 260.948,96.921 260.025,97.617 265.000,97.500" stroke-width="4.921" stroke="black" fill="none" stroke-linecap="round"></path><path d="M 265.000,97.500 C 268.013,97.713 267.948,97.921 271.000,97.500" stroke-width="4.791" stroke="black" fill="none" stroke-linecap="round"></path><path d="M 271.000,97.500 C 275.429,98.062 275.013,97.213 279.000,96.500" stroke-width="4.828" stroke="black" fill="none" stroke-linecap="round"></path><path d="M 279.000,96.500 C 283.037,93.548 283.429,94.562 287.000,90.500" stroke-width="4.481" stroke="black" fill="none" stroke-linecap="round"></path><path d="M 287.000,90.500 C 289.611,88.624 289.537,88.548 292.000,86.500" stroke-width="4.639" stroke="black" fill="none" stroke-linecap="round"></path><path d="M 292.000,86.500 C 294.124,84.611 294.111,84.624 296.000,82.500" stroke-width="4.737" stroke="black" fill="none" stroke-linecap="round"></path><path d="M 296.000,82.500 C 298.168,80.117 298.124,80.111 300.000,77.500" stroke-width="4.764" stroke="black" fill="none" stroke-linecap="round"></path><path d="M 300.000,77.500 C 302.161,75.228 301.668,75.117 303.000,72.500" stroke-width="4.937" stroke="black" fill="none" stroke-linecap="round"></path><path d="M 303.000,72.500 C 303.732,68.514 304.161,68.728 304.000,64.500" stroke-width="4.862" stroke="black" fill="none" stroke-linecap="round"></path><path d="M 304.000,64.500 C 304.565,60.891 304.232,61.014 304.000,57.500" stroke-width="4.705" stroke="black" fill="none" stroke-linecap="round"></path><path d="M 304.000,57.500 C 303.680,54.421 303.565,54.891 302.000,52.500" stroke-width="4.781" stroke="black" fill="none" stroke-linecap="round"></path><path d="M 302.000,52.500 C 299.712,49.952 300.180,50.421 297.000,49.500" stroke-width="5.046" stroke="black" fill="none" stroke-linecap="round"></path><path d="M 297.000,49.500 C 293.406,49.648 293.712,48.952 290.000,50.500" stroke-width="5.085" stroke="black" fill="none" stroke-linecap="round"></path><path d="M 290.000,50.500 C 287.401,51.300 287.406,51.148 285.000,52.500" stroke-width="4.532" stroke="black" fill="none" stroke-linecap="round"></path><path d="M 285.000,52.500 C 282.518,54.031 282.401,53.800 280.000,55.500" stroke-width="4.703" stroke="black" fill="none" stroke-linecap="round"></path><path d="M 280.000,55.500 C 275.902,56.889 276.518,57.531 273.000,59.500" stroke-width="4.801" stroke="black" fill="none" stroke-linecap="round"></path><path d="M 273.000,59.500 C 271.565,62.041 270.902,61.389 270.000,64.500" stroke-width="4.801" stroke="black" fill="none" stroke-linecap="round"></path><path d="M 270.000,64.500 C 267.015,67.202 268.065,67.541 266.000,70.500" stroke-width="4.881" stroke="black" fill="none" stroke-linecap="round"></path><path d="M 266.000,70.500 C 265.732,74.022 265.015,73.702 266.000,77.500" stroke-width="5.032" stroke="black" fill="none" stroke-linecap="round"></path><path d="M 266.000,77.500 C 265.687,80.873 266.232,80.522 267.000,83.500" stroke-width="5.004" stroke="black" fill="none" stroke-linecap="round"></path><path d="M 267.000,83.500 C 269.252,86.752 268.687,86.873 272.000,89.500" stroke-width="4.915" stroke="black" fill="none" stroke-linecap="round"></path><path d="M 272.000,89.500 C 274.217,92.108 274.252,91.752 277.000,93.500" stroke-width="4.831" stroke="black" fill="none" stroke-linecap="round"></path><path d="M 277.000,93.500 C 279.500,94.000 279.217,94.608 282.000,94.500" stroke-width="5.098" stroke="black" fill="none" stroke-linecap="round"></path><path d="M 282.000,94.500 C 284.473,95.270 284.500,95.000 287.000,95.500" stroke-width="4.952" stroke="black" fill="none" stroke-linecap="round"></path><path d="M 287.000,95.500 C 290.063,95.952 289.973,95.770 293.000,95.500" stroke-width="5.154" stroke="black" fill="none" stroke-linecap="round"></path><path d="M 293.000,95.500 C 296.617,94.801 296.563,94.952 300.000,93.500" stroke-width="4.897" stroke="black" fill="none" stroke-linecap="round"></path><path d="M 300.000,93.500 C 303.000,92.000 303.117,92.301 306.000,90.500" stroke-width="4.756" stroke="black" fill="none" stroke-linecap="round"></path><path d="M 306.000,90.500 C 310.125,88.715 310.000,88.500 314.000,86.500" stroke-width="4.520" stroke="black" fill="none" stroke-linecap="round"></path><path d="M 314.000,86.500 C 317.360,84.900 317.125,84.715 320.000,82.500" stroke-width="4.569" stroke="black" fill="none" stroke-linecap="round"></path><path d="M 320.000,82.500 C 322.527,79.522 322.860,79.900 325.000,76.500" stroke-width="4.701" stroke="black" fill="none" stroke-linecap="round"></path><path d="M 325.000,76.500 C 327.080,74.060 327.027,74.022 329.000,71.500" stroke-width="4.708" stroke="black" fill="none" stroke-linecap="round"></path><path d="M 329.000,71.500 C 331.564,68.044 331.580,68.060 334.000,64.500" stroke-width="4.533" stroke="black" fill="none" stroke-linecap="round"></path><path d="M 334.000,64.500 C 336.859,59.897 337.064,60.044 340.000,55.500" stroke-width="4.475" stroke="black" fill="none" stroke-linecap="round"></path><path d="M 340.000,55.500 C 341.648,52.616 341.859,52.897 344.000,50.500" stroke-width="4.653" stroke="black" fill="none" stroke-linecap="round"></path><path d="M 344.000,50.500 C 346.892,48.313 346.648,48.116 350.000,46.500" stroke-width="4.825" stroke="black" fill="none" stroke-linecap="round"></path><path d="M 350.000,46.500 C 352.853,44.549 352.892,44.813 356.000,43.500" stroke-width="4.736" stroke="black" fill="none" stroke-linecap="round"></path><path d="M 356.000,43.500 C 358.978,42.732 358.853,42.549 362.000,42.500" stroke-width="4.848" stroke="black" fill="none" stroke-linecap="round"></path><path d="M 362.000,42.500 C 365.529,42.211 365.478,42.232 369.000,42.500" stroke-width="5.052" stroke="black" fill="none" stroke-linecap="round"></path><path d="M 369.000,42.500 C 371.867,42.315 371.529,42.711 374.000,43.500" stroke-width="5.095" stroke="black" fill="none" stroke-linecap="round"></path><path d="M 374.000,43.500 C 377.277,45.091 376.367,44.815 378.000,47.500" stroke-width="5.066" stroke="black" fill="none" stroke-linecap="round"></path><path d="M 378.000,47.500 C 378.387,50.957 378.777,50.091 377.000,53.500" stroke-width="5.115" stroke="black" fill="none" stroke-linecap="round"></path><path d="M 377.000,53.500 C 374.723,56.272 375.387,56.457 372.000,58.500" stroke-width="4.974" stroke="black" fill="none" stroke-linecap="round"></path><path d="M 372.000,58.500 C 369.000,60.500 369.223,60.772 366.000,62.500" stroke-width="4.924" stroke="black" fill="none" stroke-linecap="round"></path><path d="M 366.000,62.500 C 362.964,64.448 363.000,64.500 360.000,66.500" stroke-width="4.799" stroke="black" fill="none" stroke-linecap="round"></path><path d="M 360.000,66.500 C 356.576,69.116 356.464,68.948 353.000,71.500" stroke-width="4.693" stroke="black" fill="none" stroke-linecap="round"></path><path d="M 353.000,71.500 C 350.602,73.199 350.576,73.116 348.000,74.500" stroke-width="4.738" stroke="black" fill="none" stroke-linecap="round"></path><path d="M 348.000,74.500 C 344.398,75.801 344.602,76.199 341.000,77.500" stroke-width="4.838" stroke="black" fill="none" stroke-linecap="round"></path><path d="M 341.000,77.500 C 338.667,79.433 338.398,78.801 336.000,80.500" stroke-width="4.782" stroke="black" fill="none" stroke-linecap="round"></path><path d="M 336.000,80.500 C 330.280,81.140 333.667,81.433 331.000,81.500" stroke-width="4.831" stroke="black" fill="none" stroke-linecap="round"></path><path d="M 331.000,81.500 C 335.514,81.902 332.280,82.140 340.000,82.500" stroke-width="5.277" stroke="black" fill="none" stroke-linecap="round"></path><path d="M 340.000,82.500 C 343.083,82.704 343.014,82.902 346.000,83.500" stroke-width="4.879" stroke="black" fill="none" stroke-linecap="round"></path><path d="M 346.000,83.500 C 348.638,84.228 348.583,84.204 351.000,85.500" stroke-width="5.003" stroke="black" fill="none" stroke-linecap="round"></path><path d="M 351.000,85.500 C 355.426,87.522 355.138,87.728 359.000,90.500" stroke-width="4.810" stroke="black" fill="none" stroke-linecap="round"></path><path d="M 359.000,90.500 C 361.291,92.814 361.426,92.522 363.000,95.500" stroke-width="4.740" stroke="black" fill="none" stroke-linecap="round"></path><path d="M 363.000,95.500 C 364.864,98.375 364.791,98.314 366.000,101.500" stroke-width="4.900" stroke="black" fill="none" stroke-linecap="round"></path><path d="M 366.000,101.500 C 366.789,103.971 366.864,103.875 367.000,106.500" stroke-width="4.880" stroke="black" fill="none" stroke-linecap="round"></path><path d="M 367.000,106.500 C 367.525,110.085 367.289,109.971 367.000,113.500" stroke-width="4.983" stroke="black" fill="none" stroke-linecap="round"></path><path d="M 367.000,113.500 C 366.213,116.588 366.525,116.585 365.000,119.500" stroke-width="4.906" stroke="black" fill="none" stroke-linecap="round"></path><path d="M 365.000,119.500 C 364.169,123.090 363.713,122.588 362.000,125.500" stroke-width="4.935" stroke="black" fill="none" stroke-linecap="round"></path><path d="M 362.000,125.500 C 359.149,127.783 359.669,128.090 356.000,129.500" stroke-width="4.904" stroke="black" fill="none" stroke-linecap="round"></path><path d="M 356.000,129.500 C 353.449,130.387 353.649,130.783 351.000,131.500" stroke-width="4.395" stroke="black" fill="none" stroke-linecap="round"></path><path d="M 351.000,131.500 C 348.159,133.447 347.949,132.887 345.000,134.500" stroke-width="4.084" stroke="black" fill="none" stroke-linecap="round"></path><path d="M 345.000,134.500 C 340.545,135.782 340.659,135.947 336.000,136.500" stroke-width="3.709" stroke="black" fill="none" stroke-linecap="round"></path><path d="M 336.000,136.500 C 331.009,137.187 331.045,137.282 326.000,137.500" stroke-width="3.527" stroke="black" fill="none" stroke-linecap="round"></path><path d="M 326.000,137.500 C 323.000,137.500 323.009,137.687 320.000,137.500" stroke-width="3.904" stroke="black" fill="none" stroke-linecap="round"></path><path d="M 320.000,137.500 C 317.000,137.500 317.000,137.500 314.000,137.500" stroke-width="4.033" stroke="black" fill="none" stroke-linecap="round"></path><path d="M 314.000,137.500 C 309.500,137.500 309.500,137.500 305.000,137.500" stroke-width="4.004" stroke="black" fill="none" stroke-linecap="round"></path><path d="M 305.000,137.500 C 300.993,137.690 301.000,137.500 297.000,137.500" stroke-width="3.823" stroke="black" fill="none" stroke-linecap="round"></path><path d="M 297.000,137.500 C 290.425,137.489 290.493,137.190 284.000,136.500" stroke-width="3.352" stroke="black" fill="none" stroke-linecap="round"></path><path d="M 284.000,136.500 C 277.489,135.045 277.425,135.489 271.000,133.500" stroke-width="3.209" stroke="black" fill="none" stroke-linecap="round"></path><path d="M 271.000,133.500 C 267.020,132.414 266.989,132.545 263.000,131.500" stroke-width="3.545" stroke="black" fill="none" stroke-linecap="round"></path><path d="M 263.000,131.500 C 256.019,129.904 256.020,129.914 249.000,128.500" stroke-width="3.186" stroke="black" fill="none" stroke-linecap="round"></path><path d="M 249.000,128.500 C 238.492,126.540 238.519,126.404 228.000,124.500" stroke-width="2.729" stroke="black" fill="none" stroke-linecap="round"></path><path d="M 228.000,124.500 C 220.563,122.580 220.492,123.040 213.000,121.500" stroke-width="2.830" stroke="black" fill="none" stroke-linecap="round"></path><path d="M 213.000,121.500 C 202.899,121.105 203.063,120.080 193.000,119.500" stroke-width="2.648" stroke="black" fill="none" stroke-linecap="round"></path><path d="M 193.000,119.500 C 184.471,117.618 184.399,118.105 176.000,115.500" stroke-width="2.790" stroke="black" fill="none" stroke-linecap="round"></path><path d="M 176.000,115.500 C 164.597,112.046 164.471,112.618 153.000,109.500" stroke-width="2.855" stroke="black" fill="none" stroke-linecap="round"></path><path d="M 153.000,109.500 C 144.008,107.953 144.097,107.546 135.000,106.500" stroke-width="3.046" stroke="black" fill="none" stroke-linecap="round"></path><path d="M 135.000,106.500 C 128.478,105.627 128.508,105.453 122.000,104.500" stroke-width="3.133" stroke="black" fill="none" stroke-linecap="round"></path><path d="M 122.000,104.500 C 117.028,103.338 116.978,103.627 112.000,102.500" stroke-width="3.339" stroke="black" fill="none" stroke-linecap="round"></path><path d="M 112.000,102.500 C 104.932,101.820 105.028,101.338 98.000,100.500" stroke-width="3.546" stroke="black" fill="none" stroke-linecap="round"></path><path d="M 98.000,100.500 C 94.571,99.130 94.432,99.820 91.000,98.500" stroke-width="4.077" stroke="black" fill="none" stroke-linecap="round"></path><path d="M 91.000,98.500 C 85.944,98.324 86.071,97.630 81.000,97.500" stroke-width="4.239" stroke="black" fill="none" stroke-linecap="round"></path><path d="M 81.000,97.500 C 77.051,96.215 76.944,96.824 73.000,95.500" stroke-width="4.419" stroke="black" fill="none" stroke-linecap="round"></path><path d="M 73.000,95.500 C 68.478,95.140 68.551,94.715 64.000,94.500" stroke-width="4.471" stroke="black" fill="none" stroke-linecap="round"></path><path d="M 64.000,94.500 C 61.508,93.956 61.478,94.140 59.000,93.500" stroke-width="4.896" stroke="black" fill="none" stroke-linecap="round"></path><path d="M 59.000,93.500 C 56.016,92.877 56.008,92.956 53.000,92.500" stroke-width="4.793" stroke="black" fill="none" stroke-linecap="round"></path><path d="M 53.000,92.500 C 47.984,92.123 48.016,91.877 43.000,91.500" stroke-width="4.612" stroke="black" fill="none" stroke-linecap="round"></path><path d="M 43.000,91.500 C 39.992,91.044 39.984,91.123 37.000,90.500" stroke-width="4.894" stroke="black" fill="none" stroke-linecap="round"></path><path d="M 37.000,90.500 C 34.508,89.956 34.492,90.044 32.000,89.500" stroke-width="5.033" stroke="black" fill="none" stroke-linecap="round"></path></svg>