{
  "accessors": [
    {
      "bufferView": 1,
      "componentType": 5126,
      "count": 2690,
      "max": [
        0.34315311908721924,
        0.34319385886192322,
        0.32877743244171143
      ],
      "min": [
        -0.34315311908721924,
        -0.34319385886192322,
        -0.32877743244171143
      ],
      "type": "VEC3"
    },
    {
      "bufferView": 1,
      "byteOffset": 32280,
      "componentType": 5126,
      "count": 2690,
      "max": [
        0.99999523162841797,
        1,
        0.99494504928588867
      ],
      "min": [
        -0.99999523162841797,
        -1,
        -0.99494504928588867
      ],
      "type": "VEC3"
    },
    {
      "bufferView": 0,
      "componentType": 5125,
      "count": 15120,
      "max": [
        2689
      ],
      "min": [
        0
      ],
      "type": "SCALAR"
    },
    {
      "bufferView": 1,
      "byteOffset": 64560,
      "componentType": 5126,
      "count": 1452,
      "max": [
        0.33772146701812744,
        0.33566728234291077,
        0.34323990345001221
      ],
      "min": [
        -0.33772146701812744,
        -0.33566728234291077,
        -0.34323990345001221
      ],
      "type": "VEC3"
    },
    {
      "bufferView": 1,
      "byteOffset": 81984,
      "componentType": 5126,
      "count": 1452,
      "max": [
        0.98670411109924316,
        0.99966078996658325,
        1
      ],
      "min": [
        -0.98670405149459839,
        -0.99966078996658325,
        -1
      ],
      "type": "VEC3"
    },
    {
      "bufferView": 0,
      "byteOffset": 60480,
      "componentType": 5125,
      "count": 7560,
      "max": [
        1451
      ],
      "min": [
        0
      ],
      "type": "SCALAR"
    }
  ],
  "asset": {
    "extras": {
      "author": "chroma3d (https://sketchfab.com/vendol21)",
      "license": "CC-BY-4.0 (http://creativecommons.org/licenses/by/4.0/)",
      "source": "https://sketchfab.com/3d-models/low-poly-cartoon-football-ball-free-259ba8af81484d19861fd5d70e9f5fcc",
      "title": "Low Poly Cartoon Football Ball Free"
    },
    "generator": "Sketchfab-7.91.0",
    "version": "2.0"
  },
  "bufferViews": [
    {
      "buffer": 0,
      "byteLength": 90720,
      "byteOffset": 0,
      "name": "floatBufferViews",
      "target": 34963
    },
    {
      "buffer": 0,
      "byteLength": 99408,
      "byteOffset": 90720,
      "byteStride": 12,
      "name": "floatBufferViews",
      "target": 34962
    }
  ],
  "buffers": [
    {
      "byteLength": 190128,
      "uri": "ball.bin"
    }
  ],
  "materials": [
    {
      "doubleSided": true,
      "emissiveFactor": [
        0,
        0,
        0
      ],
      "name": "White",
      "pbrMetallicRoughness": {
        "baseColorFactor": [
          0.80000000000000004,
          0.80000000000000004,
          0.80000000000000004,
          1
        ],
        "metallicFactor": 0,
        "roughnessFactor": 0.82394172574614266
      }
    },
    {
      "doubleSided": true,
      "emissiveFactor": [
        0,
        0,
        0
      ],
      "name": "Black",
      "pbrMetallicRoughness": {
        "baseColorFactor": [
          0.029099300000000002,
          0.029099300000000002,
          0.029099300000000002,
          1
        ],
        "metallicFactor": 0,
        "roughnessFactor": 0.82394172574614266
      }
    }
  ],
  "meshes": [
    {
      "name": "FootballBall_White_0",
      "primitives": [
        {
          "attributes": {
            "NORMAL": 1,
            "POSITION": 0
          },
          "indices": 2,
          "material": 0,
          "mode": 4
        }
      ]
    },
    {
      "name": "FootballBall_Black_0",
      "primitives": [
        {
          "attributes": {
            "NORMAL": 4,
            "POSITION": 3
          },
          "indices": 5,
          "material": 1,
          "mode": 4
        }
      ]
    }
  ],
  "nodes": [
    {
      "children": [
        1
      ],
      "name": "RootNode (gltf orientation matrix)",
      "rotation": [
        -0.70710678118654746,
        -0,
        -0,
        0.70710678118654757
      ]
    },
    {
      "children": [
        2
      ],
      "name": "RootNode (model correction matrix)"
    },
    {
      "children": [
        3
      ],
      "matrix": [
        1,
        0,
        0,
        0,
        0,
        0,
        1,
        0,
        0,
        -1,
        0,
        0,
        0,
        0,
        0,
        1
      ],
      "name": "e77a5c160632431997b482b313272057.fbx"
    },
    {
      "children": [
        4
      ],
      "name": "RootNode"
    },
    {
      "children": [
        5,
        6
      ],
      "matrix": [
        100,
        0,
        0,
        0,
        0,
        -1.6292067939183141e-05,
        -99.999999999998678,
        0,
        0,
        99.999999999998678,
        -1.6292067939183141e-05,
        0,
        0,
        0,
        0,
        1
      ],
      "name": "FootballBall"
    },
    {
      "mesh": 0,
      "name": "FootballBall_White_0"
    },
    {
      "mesh": 1,
      "name": "FootballBall_Black_0"
    }
  ],
  "scene": 0,
  "scenes": [
    {
      "name": "OSG_Scene",
      "nodes": [
        0
      ]
    }
  ]
}

