<svg width="1920" height="3470" viewBox="0 0 1920 3470" fill="none" xmlns="http://www.w3.org/2000/svg">
<path d="M1774.31 430.157C1179.8 423.898 701.122 2129 -218.001 2137.05" stroke="url(#paint0_linear)" stroke-opacity="0.6"/>
<path d="M1874 487.709C1279.49 481.451 800.805 2186.55 -118.317 2194.6" stroke="url(#paint1_linear)" stroke-opacity="0.6"/>
<path d="M1973.68 545.262C1379.17 539.003 900.491 2244.1 -18.6317 2252.15" stroke="url(#paint2_linear)" stroke-opacity="0.6"/>
<path d="M2073.37 602.815C1478.86 596.556 1000.17 2301.66 81.0519 2309.71" stroke="url(#paint3_linear)" stroke-opacity="0.6"/>
<path d="M2173.05 660.368C1578.54 654.109 1099.86 2359.21 180.735 2367.26" stroke="url(#paint4_linear)" stroke-opacity="0.6"/>
<path d="M2272.74 717.92C1678.23 711.662 1199.54 2416.76 280.421 2424.81" stroke="url(#paint5_linear)" stroke-opacity="0.6"/>
<path d="M2372.42 775.473C1777.91 769.214 1299.23 2474.31 380.105 2482.37" stroke="url(#paint6_linear)" stroke-opacity="0.6"/>
<path d="M2472.1 833.026C1877.59 826.767 1398.91 2531.87 479.788 2539.92" stroke="url(#paint7_linear)" stroke-opacity="0.6"/>
<path d="M2571.79 890.578C1977.28 884.32 1498.6 2589.42 579.474 2597.47" stroke="url(#paint8_linear)" stroke-opacity="0.6"/>
<path d="M2671.47 948.131C2076.96 941.873 1598.28 2646.97 679.157 2655.02" stroke="url(#paint9_linear)" stroke-opacity="0.6"/>
<path d="M2771.16 1005.68C2176.65 999.425 1697.96 2704.52 778.841 2712.58" stroke="url(#paint10_linear)" stroke-opacity="0.6"/>
<path d="M2870.84 1063.24C2276.33 1056.98 1797.65 2762.08 878.526 2770.13" stroke="url(#paint11_linear)" stroke-opacity="0.6"/>
<path d="M2970.53 1120.79C2376.01 1114.53 1897.33 2819.63 978.21 2827.68" stroke="url(#paint12_linear)" stroke-opacity="0.6"/>
<path d="M3070.21 1178.34C2475.7 1172.08 1997.02 2877.18 1077.89 2885.23" stroke="url(#paint13_linear)" stroke-opacity="0.6"/>
<defs>
<linearGradient id="paint0_linear" x1="904.866" y1="1431.5" x2="716.316" y2="1211.42" gradientUnits="userSpaceOnUse">
<stop stop-color="#939393"/>
<stop offset="1" stop-color="#525252" stop-opacity="0.75"/>
</linearGradient>
<linearGradient id="paint1_linear" x1="1004.55" y1="1489.05" x2="816" y2="1268.97" gradientUnits="userSpaceOnUse">
<stop stop-color="#939393"/>
<stop offset="1" stop-color="#525252" stop-opacity="0.75"/>
</linearGradient>
<linearGradient id="paint2_linear" x1="1104.23" y1="1546.6" x2="915.685" y2="1326.53" gradientUnits="userSpaceOnUse">
<stop stop-color="#939393"/>
<stop offset="1" stop-color="#525252" stop-opacity="0.75"/>
</linearGradient>
<linearGradient id="paint3_linear" x1="1203.92" y1="1604.16" x2="1015.37" y2="1384.08" gradientUnits="userSpaceOnUse">
<stop stop-color="#939393"/>
<stop offset="1" stop-color="#525252" stop-opacity="0.75"/>
</linearGradient>
<linearGradient id="paint4_linear" x1="1303.6" y1="1661.71" x2="1115.05" y2="1441.63" gradientUnits="userSpaceOnUse">
<stop stop-color="#939393"/>
<stop offset="1" stop-color="#525252" stop-opacity="0.75"/>
</linearGradient>
<linearGradient id="paint5_linear" x1="1403.29" y1="1719.26" x2="1214.74" y2="1499.19" gradientUnits="userSpaceOnUse">
<stop stop-color="#939393"/>
<stop offset="1" stop-color="#525252" stop-opacity="0.75"/>
</linearGradient>
<linearGradient id="paint6_linear" x1="1502.97" y1="1776.82" x2="1314.42" y2="1556.74" gradientUnits="userSpaceOnUse">
<stop stop-color="#939393"/>
<stop offset="1" stop-color="#525252" stop-opacity="0.75"/>
</linearGradient>
<linearGradient id="paint7_linear" x1="1602.65" y1="1834.37" x2="1414.11" y2="1614.29" gradientUnits="userSpaceOnUse">
<stop stop-color="#939393"/>
<stop offset="1" stop-color="#525252" stop-opacity="0.75"/>
</linearGradient>
<linearGradient id="paint8_linear" x1="1702.34" y1="1891.92" x2="1513.79" y2="1671.84" gradientUnits="userSpaceOnUse">
<stop stop-color="#939393"/>
<stop offset="1" stop-color="#525252" stop-opacity="0.75"/>
</linearGradient>
<linearGradient id="paint9_linear" x1="1802.02" y1="1949.47" x2="1613.47" y2="1729.4" gradientUnits="userSpaceOnUse">
<stop stop-color="#939393"/>
<stop offset="1" stop-color="#525252" stop-opacity="0.75"/>
</linearGradient>
<linearGradient id="paint10_linear" x1="1901.71" y1="2007.03" x2="1713.16" y2="1786.95" gradientUnits="userSpaceOnUse">
<stop stop-color="#939393"/>
<stop offset="1" stop-color="#525252" stop-opacity="0.75"/>
</linearGradient>
<linearGradient id="paint11_linear" x1="2001.39" y1="2064.58" x2="1812.84" y2="1844.5" gradientUnits="userSpaceOnUse">
<stop stop-color="#939393"/>
<stop offset="1" stop-color="#525252" stop-opacity="0.75"/>
</linearGradient>
<linearGradient id="paint12_linear" x1="2101.08" y1="2122.13" x2="1912.53" y2="1902.05" gradientUnits="userSpaceOnUse">
<stop stop-color="#939393"/>
<stop offset="1" stop-color="#525252" stop-opacity="0.75"/>
</linearGradient>
<linearGradient id="paint13_linear" x1="2200.76" y1="2179.69" x2="2012.21" y2="1959.61" gradientUnits="userSpaceOnUse">
<stop stop-color="#939393"/>
<stop offset="1" stop-color="#525252" stop-opacity="0.75"/>
</linearGradient>
</defs>
</svg>
